<svg version="1.1" viewBox="0.0 0.0 960.8582677165355 352.7769028871391" fill="none" stroke="none" stroke-linecap="square" stroke-miterlimit="10" xmlns:xlink="http://www.w3.org/1999/xlink" xmlns="http://www.w3.org/2000/svg"><clipPath id="p.0"><path d="m0 0l960.8583 0l0 352.77692l-960.8583 0l0 -352.77692z" clip-rule="nonzero"/></clipPath><g clip-path="url(#p.0)"><path fill="#000000" fill-opacity="0.0" d="m0 0l960.8583 0l0 352.77692l-960.8583 0z" fill-rule="evenodd"/><path fill="#d9d9d9" d="m175.83119 4.5094013l-175.83119 224.90324l0 34.366867l191.01662 0l0 84.47858l47.634277 0l0 -84.47858l65.37724 0l0 -42.199326l-65.37724 0l0 -74.648056l-46.115738 0l0 74.648056l-131.9541 0l168.31918 -217.07079z" fill-rule="evenodd"/><path fill="#d9d9d9" d="m473.89175 44.311043c18.0094 0 33.807556 4.928589 47.3945 14.785748c13.586975 9.80389 24.216736 24.53635 31.889404 44.197407c7.725891 19.607758 11.588867 43.98426 11.588867 73.12951c0 29.091965 -3.862976 53.468475 -11.588867 73.12953c-7.6726685 19.661057 -18.30243 34.39354 -31.889404 44.197403c-13.586945 9.803864 -29.385101 14.705811 -47.3945 14.705811c-18.009369 0 -33.88745 -4.901947 -47.634247 -14.705811c-13.746826 -9.803864 -24.483185 -24.536346 -32.209076 -44.197403c-7.672638 -19.661057 -11.508972 -44.037567 -11.508972 -73.12953c0 -29.145248 3.8363342 -53.52175 11.508972 -73.12951c7.725891 -19.661057 18.46225 -34.393517 32.209076 -44.197407c13.746796 -9.857159 29.624878 -14.785748 47.634247 -14.785748zm0 -43.71787c-26.854218 0 -50.831177 6.8733754 -71.93094 20.620127c-21.099731 13.74675 -37.80371 33.727493 -50.111877 59.94223c-12.254913 26.161446 -18.382355 57.917496 -18.382355 95.26817c0 37.29738 6.1274414 69.05345 18.382355 95.26819c12.3081665 26.161469 29.012146 46.11554 50.111877 59.862305c21.099762 13.746765 45.07672 20.620117 71.93094 20.620117c26.534546 0 50.43161 -6.873352 71.69119 -20.620117c21.259583 -13.746765 37.93689 -33.700836 50.031982 -59.862305c12.148315 -26.214737 18.222473 -57.97081 18.222473 -95.26819c0 -37.350662 -6.0741577 -69.10671 -18.222473 -95.26817c-12.095093 -26.214737 -28.7724 -46.19548 -50.031982 -59.94223c-21.259583 -13.746752 -45.156647 -20.620127 -71.69119 -20.620127z" fill-rule="evenodd"/><path fill="#d9d9d9" d="m831.87177 4.5094013l-175.83118 224.90324l0 34.366867l191.0166 0l0 84.47858l47.634277 0l0 -84.47858l65.3772 0l0 -42.199326l-65.3772 0l0 -74.648056l-46.115723 0l0 74.648056l-131.95416 0l168.31921 -217.07079z" fill-rule="evenodd"/></g></svg>