<svg version="1.1" viewBox="0.0 0.0 512.0 512.0" fill="none" stroke="none" stroke-linecap="square" stroke-miterlimit="10" xmlns:xlink="http://www.w3.org/1999/xlink" xmlns="http://www.w3.org/2000/svg"><clipPath id="p.0"><path d="m0 0l512.0 0l0 512.0l-512.0 0l0 -512.0z" clip-rule="nonzero"/></clipPath><g clip-path="url(#p.0)"><path fill="#000000" fill-opacity="0.0" d="m0 0l512.0 0l0 512.0l-512.0 0z" fill-rule="evenodd"/><path fill="#ffffff" d="m-0.21784776 153.3335l0 0c0 -85.66511 69.4453 -155.1104 155.1104 -155.1104l201.7792 0l0 0c41.137848 0 80.59076 16.341942 109.67963 45.430782c29.088837 29.08884 45.430786 68.54178 45.430786 109.67961l0 201.7792c0 85.6651 -69.44531 155.11038 -155.11041 155.11038l-201.7792 0c-85.6651 0 -155.1104 -69.44528 -155.1104 -155.11038z" fill-rule="evenodd"/><defs><linearGradient id="p.1" gradientUnits="userSpaceOnUse" gradientTransform="matrix(23.47172962348383 0.0 0.0 23.47172962348383 0.0 0.0)" spreadMethod="pad" x1="27.503384355043487" y1="10.831530896017636" x2="10.90651849219871" y2="-5.765641605606434"><stop offset="0.0" stop-color="#2392b5"/><stop offset="1.0" stop-color="#054459"/></linearGradient></defs><path fill="url(#p.1)" d="m46.55249 74.10892l0 360.24503l94.14473 0l0 -185.8452l92.13451 150.33162l45.313416 0l92.75946 -155.67224l0.88272095 191.18582l93.64218 0l-1.005127 -360.24503l-83.84241 0l-123.343475 208.18164l0 0l-126.75984 -208.18164z" fill-rule="evenodd"/><path fill="#ffffff" d="m416.83984 94.97265l0 0c2.4362488 -8.426094 11.241913 -13.281837 19.668 -10.845596l0 0c4.046356 1.1699219 7.462219 3.8993378 9.496185 7.587799c2.0339355 3.688469 2.5193481 8.033844 1.3494263 12.0802l0 0c-2.4362488 8.426094 -11.241913 13.281837 -19.668 10.845596l0 0c-8.426117 -2.4362335 -13.28186 -11.241898 -10.845612 -19.668z" fill-rule="evenodd"/><path stroke="#ffffff" stroke-width="10.587926509186351" stroke-linejoin="round" stroke-linecap="butt" d="m416.83984 94.97265l0 0c2.4362488 -8.426094 11.241913 -13.281837 19.668 -10.845596l0 0c4.046356 1.1699219 7.462219 3.8993378 9.496185 7.587799c2.0339355 3.688469 2.5193481 8.033844 1.3494263 12.0802l0 0c-2.4362488 8.426094 -11.241913 13.281837 -19.668 10.845596l0 0c-8.426117 -2.4362335 -13.28186 -11.241898 -10.845612 -19.668z" fill-rule="evenodd"/><path fill="#ffffff" d="m445.76144 147.42065l0 0c2.4362488 -8.426102 11.241913 -13.281845 19.668 -10.845612l0 0c4.046356 1.1699371 7.462219 3.8993378 9.496185 7.5878143c2.0339355 3.6884613 2.5193481 8.033844 1.3494263 12.080185l0 0c-2.4362488 8.426102 -11.241913 13.281845 -19.668 10.845612l0 0c-8.426117 -2.4362488 -13.28186 -11.241913 -10.845612 -19.668z" fill-rule="evenodd"/><path stroke="#ffffff" stroke-width="10.587926509186351" stroke-linejoin="round" stroke-linecap="butt" d="m445.76144 147.42065l0 0c2.4362488 -8.426102 11.241913 -13.281845 19.668 -10.845612l0 0c4.046356 1.1699371 7.462219 3.8993378 9.496185 7.5878143c2.0339355 3.6884613 2.5193481 8.033844 1.3494263 12.080185l0 0c-2.4362488 8.426102 -11.241913 13.281845 -19.668 10.845612l0 0c-8.426117 -2.4362488 -13.28186 -11.241913 -10.845612 -19.668z" fill-rule="evenodd"/><path fill="#ffffff" d="m366.0864 91.31977l0 0c1.9502563 -6.7453003 8.99942 -10.632439 15.74472 -8.682167l0 0c3.2391968 0.9365463 5.973694 3.1215134 7.6019287 6.0742188c1.6282349 2.952713 2.0168152 6.4312973 1.0802612 9.670502l0 0c-1.9502869 6.7453003 -8.999451 10.632446 -15.744751 8.682175l0 0c-6.7453003 -1.9502716 -10.632416 -8.99942 -8.682159 -15.744728z" fill-rule="evenodd"/><path stroke="#ffffff" stroke-width="10.587926509186351" stroke-linejoin="round" stroke-linecap="butt" d="m366.0864 91.31977l0 0c1.9502563 -6.7453003 8.99942 -10.632439 15.74472 -8.682167l0 0c3.2391968 0.9365463 5.973694 3.1215134 7.6019287 6.0742188c1.6282349 2.952713 2.0168152 6.4312973 1.0802612 9.670502l0 0c-1.9502869 6.7453003 -8.999451 10.632446 -15.744751 8.682175l0 0c-6.7453003 -1.9502716 -10.632416 -8.99942 -8.682159 -15.744728z" fill-rule="evenodd"/><path fill="#ffffff" d="m395.008 143.76778l0 0c1.9502563 -6.7453003 8.99942 -10.632446 15.74472 -8.682175l0 0c3.2391968 0.93655396 5.973694 3.121521 7.6019287 6.0742188c1.6282349 2.952713 2.0167847 6.4312897 1.0802612 9.670502l0 0c-1.9502869 6.7453003 -8.999451 10.632446 -15.744751 8.682175l0 0c-6.7453003 -1.9502716 -10.632416 -8.99942 -8.682159 -15.74472z" fill-rule="evenodd"/><path stroke="#ffffff" stroke-width="10.587926509186351" stroke-linejoin="round" stroke-linecap="butt" d="m395.008 143.76778l0 0c1.9502563 -6.7453003 8.99942 -10.632446 15.74472 -8.682175l0 0c3.2391968 0.93655396 5.973694 3.121521 7.6019287 6.0742188c1.6282349 2.952713 2.0167847 6.4312897 1.0802612 9.670502l0 0c-1.9502869 6.7453003 -8.999451 10.632446 -15.744751 8.682175l0 0c-6.7453003 -1.9502716 -10.632416 -8.99942 -8.682159 -15.74472z" fill-rule="evenodd"/><path fill="#ffffff" d="m423.9296 196.21577l0 0c1.9502563 -6.7453003 8.99942 -10.632446 15.74472 -8.682175l0 0c3.2391968 0.93655396 5.973694 3.121521 7.6019287 6.0742188c1.6282349 2.952713 2.0167847 6.431305 1.0802612 9.670502l0 0c-1.9502869 6.7453003 -8.999451 10.632446 -15.744751 8.682175l0 0c-6.7453003 -1.9502716 -10.632416 -8.99942 -8.682159 -15.74472z" fill-rule="evenodd"/><path stroke="#ffffff" stroke-width="10.587926509186351" stroke-linejoin="round" stroke-linecap="butt" d="m423.9296 196.21577l0 0c1.9502563 -6.7453003 8.99942 -10.632446 15.74472 -8.682175l0 0c3.2391968 0.93655396 5.973694 3.121521 7.6019287 6.0742188c1.6282349 2.952713 2.0167847 6.431305 1.0802612 9.670502l0 0c-1.9502869 6.7453003 -8.999451 10.632446 -15.744751 8.682175l0 0c-6.7453003 -1.9502716 -10.632416 -8.99942 -8.682159 -15.74472z" fill-rule="evenodd"/><path fill="#ffffff" d="m452.8512 248.66377l0 0c1.9502563 -6.7453003 8.99942 -10.632446 15.74472 -8.682175l0 0c3.2391968 0.93655396 5.973694 3.121521 7.6019287 6.074234c1.6282349 2.9526978 2.0167847 6.4312897 1.0802612 9.670486l0 0c-1.9502869 6.7453003 -8.999451 10.632446 -15.744751 8.68219l0 0c-6.7453003 -1.9502869 -10.632416 -8.999435 -8.682159 -15.744736z" fill-rule="evenodd"/><path stroke="#ffffff" stroke-width="10.587926509186351" stroke-linejoin="round" stroke-linecap="butt" d="m452.8512 248.66377l0 0c1.9502563 -6.7453003 8.99942 -10.632446 15.74472 -8.682175l0 0c3.2391968 0.93655396 5.973694 3.121521 7.6019287 6.074234c1.6282349 2.9526978 2.0167847 6.4312897 1.0802612 9.670486l0 0c-1.9502869 6.7453003 -8.999451 10.632446 -15.744751 8.68219l0 0c-6.7453003 -1.9502869 -10.632416 -8.999435 -8.682159 -15.744736z" fill-rule="evenodd"/><path fill="#ffffff" d="m344.27457 140.12068l0 0c1.4610901 -5.0534363 6.7421875 -7.9656067 11.795624 -6.5045013l0 0c2.4267578 0.7016449 4.475403 2.3385773 5.695221 4.5506897c1.2198486 2.2121124 1.5109558 4.8181915 0.80929565 7.244934l0 0c-1.4610901 5.0534515 -6.7421875 7.965622 -11.795624 6.5045166l0 0c-5.0534363 -1.4611053 -7.9656067 -6.7421875 -6.5045166 -11.795639z" fill-rule="evenodd"/><path stroke="#ffffff" stroke-width="10.587926509186351" stroke-linejoin="round" stroke-linecap="butt" d="m344.27457 140.12068l0 0c1.4610901 -5.0534363 6.7421875 -7.9656067 11.795624 -6.5045013l0 0c2.4267578 0.7016449 4.475403 2.3385773 5.695221 4.5506897c1.2198486 2.2121124 1.5109558 4.8181915 0.80929565 7.244934l0 0c-1.4610901 5.0534515 -6.7421875 7.965622 -11.795624 6.5045166l0 0c-5.0534363 -1.4611053 -7.9656067 -6.7421875 -6.5045166 -11.795639z" fill-rule="evenodd"/><path fill="#ffffff" d="m373.19617 192.56868l0 0c1.4610901 -5.0534363 6.7421875 -7.9656067 11.795624 -6.5045013l0 0c2.4267578 0.7016449 4.475403 2.3385773 5.695221 4.5506897c1.2198486 2.2121124 1.5109558 4.8181915 0.80929565 7.2449493l0 0c-1.4610901 5.0534363 -6.7421875 7.9656067 -11.795624 6.5045013l0 0c-5.0534363 -1.4610901 -7.9656067 -6.7421875 -6.5045166 -11.795639z" fill-rule="evenodd"/><path stroke="#ffffff" stroke-width="10.587926509186351" stroke-linejoin="round" stroke-linecap="butt" d="m373.19617 192.56868l0 0c1.4610901 -5.0534363 6.7421875 -7.9656067 11.795624 -6.5045013l0 0c2.4267578 0.7016449 4.475403 2.3385773 5.695221 4.5506897c1.2198486 2.2121124 1.5109558 4.8181915 0.80929565 7.2449493l0 0c-1.4610901 5.0534363 -6.7421875 7.9656067 -11.795624 6.5045013l0 0c-5.0534363 -1.4610901 -7.9656067 -6.7421875 -6.5045166 -11.795639z" fill-rule="evenodd"/><path fill="#ffffff" d="m402.11777 245.0167l0 0c1.4610901 -5.0534515 6.7421875 -7.965622 11.795624 -6.5045166l0 0c2.4267578 0.7016449 4.475403 2.3385773 5.695221 4.5506897c1.2198486 2.2121124 1.5109558 4.8181915 0.80929565 7.2449493l0 0c-1.4610901 5.0534363 -6.7421875 7.965622 -11.795624 6.5045013l0 0c-5.0534363 -1.4610901 -7.9656067 -6.7421875 -6.5045166 -11.795624z" fill-rule="evenodd"/><path stroke="#ffffff" stroke-width="10.587926509186351" stroke-linejoin="round" stroke-linecap="butt" d="m402.11777 245.0167l0 0c1.4610901 -5.0534515 6.7421875 -7.965622 11.795624 -6.5045166l0 0c2.4267578 0.7016449 4.475403 2.3385773 5.695221 4.5506897c1.2198486 2.2121124 1.5109558 4.8181915 0.80929565 7.2449493l0 0c-1.4610901 5.0534363 -6.7421875 7.965622 -11.795624 6.5045013l0 0c-5.0534363 -1.4610901 -7.9656067 -6.7421875 -6.5045166 -11.795624z" fill-rule="evenodd"/><path fill="#ffffff" d="m431.03937 297.4647l0 0c1.4610901 -5.0534363 6.7421875 -7.9656067 11.795624 -6.5045166l0 0c2.4267578 0.70166016 4.475403 2.3385925 5.695221 4.5506897c1.2198486 2.2120972 1.5109558 4.818207 0.80929565 7.244934l0 0c-1.4610901 5.053467 -6.7421875 7.965637 -11.795624 6.5045166l0 0c-5.0534363 -1.4610901 -7.9656067 -6.7421875 -6.5045166 -11.795624z" fill-rule="evenodd"/><path stroke="#ffffff" stroke-width="10.587926509186351" stroke-linejoin="round" stroke-linecap="butt" d="m431.03937 297.4647l0 0c1.4610901 -5.0534363 6.7421875 -7.9656067 11.795624 -6.5045166l0 0c2.4267578 0.70166016 4.475403 2.3385925 5.695221 4.5506897c1.2198486 2.2120972 1.5109558 4.818207 0.80929565 7.244934l0 0c-1.4610901 5.053467 -6.7421875 7.965637 -11.795624 6.5045166l0 0c-5.0534363 -1.4610901 -7.9656067 -6.7421875 -6.5045166 -11.795624z" fill-rule="evenodd"/><path fill="#ffffff" d="m459.96097 349.9127l0 0c1.4610901 -5.0534363 6.7421875 -7.9656067 11.795624 -6.5045166l0 0c2.4267578 0.70166016 4.475403 2.3385925 5.695221 4.5506897c1.2198486 2.2121277 1.5109558 4.818207 0.80929565 7.244934l0 0c-1.4610901 5.053467 -6.7421875 7.965637 -11.795624 6.5045166l0 0c-5.0534363 -1.4610901 -7.9656067 -6.7421875 -6.5045166 -11.795624z" fill-rule="evenodd"/><path stroke="#ffffff" stroke-width="10.587926509186351" stroke-linejoin="round" stroke-linecap="butt" d="m459.96097 349.9127l0 0c1.4610901 -5.0534363 6.7421875 -7.9656067 11.795624 -6.5045166l0 0c2.4267578 0.70166016 4.475403 2.3385925 5.695221 4.5506897c1.2198486 2.2121277 1.5109558 4.818207 0.80929565 7.244934l0 0c-1.4610901 5.053467 -6.7421875 7.965637 -11.795624 6.5045166l0 0c-5.0534363 -1.4610901 -7.9656067 -6.7421875 -6.5045166 -11.795624z" fill-rule="evenodd"/><path fill="#ffffff" d="m322.44272 188.91582l0 0c0.9751282 -3.3726501 4.4997253 -5.316223 7.8723755 -4.341095l0 0c1.6195984 0.46827698 2.986847 1.5607605 3.8009644 3.0371094c0.8140869 1.4763641 1.0083923 3.2156525 0.5401001 4.835251l0 0c-0.9751282 3.3726501 -4.499695 5.316223 -7.872345 4.341095l0 0c-3.3726501 -0.97514343 -5.316223 -4.49971 -4.341095 -7.87236z" fill-rule="evenodd"/><path stroke="#ffffff" stroke-width="10.587926509186351" stroke-linejoin="round" stroke-linecap="butt" d="m322.44272 188.91582l0 0c0.9751282 -3.3726501 4.4997253 -5.316223 7.8723755 -4.341095l0 0c1.6195984 0.46827698 2.986847 1.5607605 3.8009644 3.0371094c0.8140869 1.4763641 1.0083923 3.2156525 0.5401001 4.835251l0 0c-0.9751282 3.3726501 -4.499695 5.316223 -7.872345 4.341095l0 0c-3.3726501 -0.97514343 -5.316223 -4.49971 -4.341095 -7.87236z" fill-rule="evenodd"/><path fill="#ffffff" d="m351.36432 241.36382l0 0c0.9751282 -3.3726501 4.4997253 -5.316223 7.8723755 -4.341095l0 0c1.6195984 0.46827698 2.986847 1.5607605 3.8009644 3.0371246c0.8140869 1.4763489 1.0083923 3.2156372 0.5401001 4.8352356l0 0c-0.9751282 3.3726501 -4.499695 5.316223 -7.872345 4.341095l0 0c-3.3726501 -0.97514343 -5.316223 -4.49971 -4.341095 -7.87236z" fill-rule="evenodd"/><path stroke="#ffffff" stroke-width="10.587926509186351" stroke-linejoin="round" stroke-linecap="butt" d="m351.36432 241.36382l0 0c0.9751282 -3.3726501 4.4997253 -5.316223 7.8723755 -4.341095l0 0c1.6195984 0.46827698 2.986847 1.5607605 3.8009644 3.0371246c0.8140869 1.4763489 1.0083923 3.2156372 0.5401001 4.8352356l0 0c-0.9751282 3.3726501 -4.499695 5.316223 -7.872345 4.341095l0 0c-3.3726501 -0.97514343 -5.316223 -4.49971 -4.341095 -7.87236z" fill-rule="evenodd"/><path fill="#ffffff" d="m380.28592 293.8118l0 0c0.9751282 -3.3726501 4.4997253 -5.316223 7.8723755 -4.3410645l0 0c1.6195984 0.46826172 2.986847 1.5607605 3.8009644 3.0371094c0.8140869 1.4763489 1.0083923 3.2156372 0.5401001 4.8352356l0 0c-0.9751282 3.3726501 -4.499695 5.316223 -7.872345 4.341095l0 0c-3.3726501 -0.9751282 -5.316223 -4.4997253 -4.341095 -7.8723755z" fill-rule="evenodd"/><path stroke="#ffffff" stroke-width="10.587926509186351" stroke-linejoin="round" stroke-linecap="butt" d="m380.28592 293.8118l0 0c0.9751282 -3.3726501 4.4997253 -5.316223 7.8723755 -4.3410645l0 0c1.6195984 0.46826172 2.986847 1.5607605 3.8009644 3.0371094c0.8140869 1.4763489 1.0083923 3.2156372 0.5401001 4.8352356l0 0c-0.9751282 3.3726501 -4.499695 5.316223 -7.872345 4.341095l0 0c-3.3726501 -0.9751282 -5.316223 -4.4997253 -4.341095 -7.8723755z" fill-rule="evenodd"/><path fill="#ffffff" d="m409.20752 346.25983l0 0c0.9751282 -3.3726807 4.4997253 -5.316223 7.8723755 -4.341095l0 0c1.6195984 0.46826172 2.986847 1.5607605 3.8009338 3.0371094c0.81411743 1.4763489 1.0084229 3.2156372 0.5401306 4.8352356l0 0c-0.9751282 3.3726501 -4.499695 5.316223 -7.872345 4.341095l0 0c-3.3726501 -0.9751282 -5.316223 -4.499695 -4.341095 -7.872345z" fill-rule="evenodd"/><path stroke="#ffffff" stroke-width="10.587926509186351" stroke-linejoin="round" stroke-linecap="butt" d="m409.20752 346.25983l0 0c0.9751282 -3.3726807 4.4997253 -5.316223 7.8723755 -4.341095l0 0c1.6195984 0.46826172 2.986847 1.5607605 3.8009338 3.0371094c0.81411743 1.4763489 1.0084229 3.2156372 0.5401306 4.8352356l0 0c-0.9751282 3.3726501 -4.499695 5.316223 -7.872345 4.341095l0 0c-3.3726501 -0.9751282 -5.316223 -4.499695 -4.341095 -7.872345z" fill-rule="evenodd"/><path fill="#ffffff" d="m438.12912 398.70782l0 0c0.9751282 -3.3726501 4.4997253 -5.316223 7.8723755 -4.341095l0 0c1.6195984 0.46826172 2.986847 1.5607605 3.8009338 3.0371094c0.81411743 1.4763489 1.0084229 3.2156372 0.5401306 4.8352356l0 0c-0.9751282 3.3726501 -4.499695 5.316223 -7.872345 4.341095l0 0c-3.3726501 -0.9751282 -5.316223 -4.499695 -4.341095 -7.872345z" fill-rule="evenodd"/><path stroke="#ffffff" stroke-width="10.587926509186351" stroke-linejoin="round" stroke-linecap="butt" d="m438.12912 398.70782l0 0c0.9751282 -3.3726501 4.4997253 -5.316223 7.8723755 -4.341095l0 0c1.6195984 0.46826172 2.986847 1.5607605 3.8009338 3.0371094c0.81411743 1.4763489 1.0084229 3.2156372 0.5401306 4.8352356l0 0c-0.9751282 3.3726501 -4.499695 5.316223 -7.872345 4.341095l0 0c-3.3726501 -0.9751282 -5.316223 -4.499695 -4.341095 -7.872345z" fill-rule="evenodd"/><path fill="#ffffff" d="m300.6309 237.71672l0 0c0.4859619 -1.6807861 2.2424927 -2.6493988 3.9232788 -2.1634216l0 0c0.8071594 0.23336792 1.4885254 0.7778168 1.8942566 1.5135803c0.40570068 0.7357483 0.50253296 1.6025543 0.26916504 2.4096985l0 0c-0.4859619 1.6807861 -2.2424622 2.6493988 -3.9232788 2.1634216l0 0c-1.6807861 -0.4859619 -2.6493835 -2.2424774 -2.1634216 -3.9232788z" fill-rule="evenodd"/><path stroke="#ffffff" stroke-width="10.587926509186351" stroke-linejoin="round" stroke-linecap="butt" d="m300.6309 237.71672l0 0c0.4859619 -1.6807861 2.2424927 -2.6493988 3.9232788 -2.1634216l0 0c0.8071594 0.23336792 1.4885254 0.7778168 1.8942566 1.5135803c0.40570068 0.7357483 0.50253296 1.6025543 0.26916504 2.4096985l0 0c-0.4859619 1.6807861 -2.2424622 2.6493988 -3.9232788 2.1634216l0 0c-1.6807861 -0.4859619 -2.6493835 -2.2424774 -2.1634216 -3.9232788z" fill-rule="evenodd"/><path fill="#ffffff" d="m387.3957 395.06073l0 0c0.4859619 -1.6808167 2.2424927 -2.649414 3.9232788 -2.1634216l0 0c0.8071594 0.23336792 1.4885254 0.7778015 1.8942566 1.5135803c0.40570068 0.7357483 0.50253296 1.6025391 0.26916504 2.4096985l0 0c-0.4859619 1.6807861 -2.2424622 2.6493835 -3.9232788 2.1634216l0 0c-1.6807861 -0.4859619 -2.6493835 -2.2424927 -2.1634216 -3.9232788z" fill-rule="evenodd"/><path stroke="#ffffff" stroke-width="10.587926509186351" stroke-linejoin="round" stroke-linecap="butt" d="m387.3957 395.06073l0 0c0.4859619 -1.6808167 2.2424927 -2.649414 3.9232788 -2.1634216l0 0c0.8071594 0.23336792 1.4885254 0.7778015 1.8942566 1.5135803c0.40570068 0.7357483 0.50253296 1.6025391 0.26916504 2.4096985l0 0c-0.4859619 1.6807861 -2.2424622 2.6493835 -3.9232788 2.1634216l0 0c-1.6807861 -0.4859619 -2.6493835 -2.2424927 -2.1634216 -3.9232788z" fill-rule="evenodd"/><path fill="#ffffff" d="m329.5525 290.16473l0 0c0.4859619 -1.6808167 2.2424927 -2.649414 3.9232788 -2.1634216l0 0c0.8071594 0.23336792 1.4885254 0.7778015 1.8942566 1.5135498c0.40570068 0.7357788 0.50253296 1.6025696 0.26916504 2.4096985l0 0c-0.4859619 1.6808167 -2.2424622 2.649414 -3.9232788 2.1634521l0 0c-1.6807861 -0.48599243 -2.6493835 -2.2424927 -2.1634216 -3.9232788z" fill-rule="evenodd"/><path stroke="#ffffff" stroke-width="10.587926509186351" stroke-linejoin="round" stroke-linecap="butt" d="m329.5525 290.16473l0 0c0.4859619 -1.6808167 2.2424927 -2.649414 3.9232788 -2.1634216l0 0c0.8071594 0.23336792 1.4885254 0.7778015 1.8942566 1.5135498c0.40570068 0.7357788 0.50253296 1.6025696 0.26916504 2.4096985l0 0c-0.4859619 1.6808167 -2.2424622 2.649414 -3.9232788 2.1634521l0 0c-1.6807861 -0.48599243 -2.6493835 -2.2424927 -2.1634216 -3.9232788z" fill-rule="evenodd"/></g></svg>